<svg width="154" height="50" viewBox="0 0 154 50" fill="none" xmlns="http://www.w3.org/2000/svg">
<rect width="153.037" height="50" fill="white"/>
<path d="M27.667 17.3524L25.2246 22.2372C24.9297 22.8319 24.0746 22.8122 23.8043 22.2077L21.0081 16.001L19.5338 19.5245H14.9095L23.8781 28.6897C24.227 29.0485 24.7921 29.0485 25.141 28.6897L34.1146 19.5245H28.7531L27.667 17.3524ZM35.2104 9.00298L35.0925 8.88012C32.5616 6.29519 28.4189 6.29519 25.8831 8.88012L24.512 10.2856L23.1409 8.88504C20.6101 6.29519 16.4624 6.29519 13.9315 8.88504L13.8136 9.00298C11.4203 11.4503 11.3171 15.3474 13.4548 17.9519H18.4871L20.2513 13.7158C20.5167 13.0819 21.4111 13.0671 21.6961 13.6962L24.5562 20.0504L26.9642 15.2392C27.2542 14.6594 28.0798 14.6594 28.3697 15.2392L29.7261 17.9519H35.5692C37.7069 15.3474 37.6037 11.4503 35.2104 9.00298Z" fill="#E80320"/>
<path d="M18.1518 27.6511C17.5716 26.8796 16.4714 26.7209 15.6995 27.3009C14.9277 27.8809 14.769 28.9806 15.3492 29.7521L17.4347 32.5316C17.6975 32.8817 17.6592 33.3687 17.3526 33.6751L16.652 34.3754C16.2852 34.742 15.6886 34.7147 15.3602 34.3152L10.4447 28.4171V20.2975C10.4447 19.329 9.6619 18.5466 8.69303 18.5466C7.72416 18.5466 6.94141 19.329 6.94141 20.2975V32.247C6.94141 32.8434 7.14394 33.4234 7.51616 33.8885L13.2144 41.2366C13.4881 41.5922 13.6742 41.9971 13.7837 42.4239C13.8822 42.8014 14.2271 43.0586 14.6212 43.0586H21.8302C22.3119 43.0586 22.706 42.6646 22.706 42.1831V36.0552C22.706 34.5396 22.2134 33.0678 21.3047 31.8531L18.1518 27.6511ZM40.2223 18.5466C39.2534 18.5466 38.4707 19.329 38.4707 20.2975V28.4171L33.5552 34.3152C33.2268 34.7092 32.6246 34.7365 32.2634 34.3754L31.5627 33.6751C31.2562 33.3687 31.2179 32.8817 31.4806 32.5316L33.5661 29.7521C34.1464 28.9806 33.9876 27.8809 33.2158 27.3009C32.444 26.7209 31.3438 26.8796 30.7635 27.6511L27.6106 31.8531C26.7019 33.0678 26.2093 34.5396 26.2093 36.0552V42.1831C26.2093 42.6646 26.6034 43.0586 27.0851 43.0586H34.2942C34.6828 43.0586 35.0331 42.8014 35.1317 42.4239C35.2411 41.9971 35.4272 41.5922 35.7009 41.2366L41.3992 33.8885C41.7714 33.4234 41.9739 32.8434 41.9739 32.247V20.2975C41.9739 19.329 41.1912 18.5466 40.2223 18.5466Z" fill="#00549D"/>
<path d="M53.3062 31V19.168H55.8078V24.0499H60.8861V19.168H63.3819V31H60.8861V26.1124H55.8078V31H53.3062ZM69.4423 31.1733C68.5295 31.1733 67.7438 30.9884 67.0851 30.6187C66.4304 30.2451 65.9258 29.7174 65.5715 29.0357C65.2171 28.3501 65.04 27.5394 65.04 26.6034C65.04 25.6906 65.2171 24.8895 65.5715 24.2001C65.9258 23.5106 66.4246 22.9734 67.0678 22.5882C67.7149 22.203 68.4736 22.0105 69.3441 22.0105C69.9295 22.0105 70.4745 22.1048 70.9791 22.2936C71.4875 22.4784 71.9304 22.7577 72.3079 23.1313C72.6892 23.5049 72.9857 23.9748 73.1976 24.5409C73.4094 25.1033 73.5153 25.7619 73.5153 26.5168V27.1927H66.0221V25.6675H71.1986C71.1986 25.3132 71.1216 24.9993 70.9675 24.7258C70.8135 24.4524 70.5997 24.2386 70.3262 24.0845C70.0566 23.9266 69.7427 23.8477 69.3845 23.8477C69.0109 23.8477 68.6797 23.9343 68.3908 24.1076C68.1058 24.2771 67.8824 24.5063 67.7207 24.7951C67.5589 25.0802 67.4761 25.3979 67.4722 25.7484V27.1985C67.4722 27.6376 67.5531 28.017 67.7149 28.3366C67.8805 28.6563 68.1135 28.9028 68.4139 29.0761C68.7144 29.2495 69.0706 29.3361 69.4827 29.3361C69.7562 29.3361 70.0066 29.2976 70.2338 29.2206C70.461 29.1435 70.6555 29.028 70.8173 28.8739C70.9791 28.7199 71.1023 28.5312 71.1871 28.3078L73.4633 28.458C73.3478 29.0049 73.1109 29.4825 72.7527 29.8908C72.3984 30.2952 71.94 30.611 71.3777 30.8382C70.8192 31.0616 70.1741 31.1733 69.4423 31.1733ZM77.6519 31.1675C77.0857 31.1675 76.5812 31.0693 76.1382 30.8729C75.6953 30.6726 75.3448 30.378 75.0868 29.989C74.8326 29.5961 74.7055 29.107 74.7055 28.5215C74.7055 28.0285 74.796 27.6145 74.977 27.2794C75.158 26.9443 75.4045 26.6747 75.7165 26.4706C76.0285 26.2664 76.3828 26.1124 76.7795 26.0084C77.1801 25.9044 77.5999 25.8312 78.039 25.7888C78.5551 25.7349 78.9711 25.6848 79.2869 25.6386C79.6027 25.5886 79.8319 25.5154 79.9744 25.4191C80.1169 25.3228 80.1881 25.1803 80.1881 24.9916V24.9569C80.1881 24.591 80.0726 24.3079 79.8415 24.1076C79.6143 23.9074 79.2907 23.8072 78.8709 23.8072C78.428 23.8072 78.0756 23.9054 77.8137 24.1019C77.5518 24.2944 77.3784 24.5371 77.2937 24.8298L75.0174 24.6449C75.133 24.1057 75.3602 23.6397 75.6992 23.2468C76.0381 22.8501 76.4752 22.5458 77.0106 22.334C77.5498 22.1183 78.1738 22.0105 78.8825 22.0105C79.3755 22.0105 79.8473 22.0682 80.2979 22.1838C80.7524 22.2993 81.1549 22.4784 81.5054 22.7211C81.8597 22.9637 82.139 23.2757 82.3431 23.657C82.5472 24.0345 82.6493 24.487 82.6493 25.0147V31H80.3153V29.7694H80.2459C80.1034 30.0467 79.9128 30.2913 79.674 30.5031C79.4352 30.7111 79.1482 30.8748 78.8131 30.9942C78.4781 31.1098 78.091 31.1675 77.6519 31.1675ZM78.3567 29.469C78.7188 29.469 79.0385 29.3978 79.3158 29.2552C79.5931 29.1089 79.8107 28.9125 79.9686 28.666C80.1265 28.4195 80.2055 28.1402 80.2055 27.8282V26.8865C80.1284 26.9366 80.0225 26.9828 79.8877 27.0252C79.7568 27.0637 79.6085 27.1003 79.4429 27.135C79.2773 27.1658 79.1116 27.1947 78.946 27.2216C78.7804 27.2447 78.6302 27.2659 78.4954 27.2852C78.2065 27.3275 77.9542 27.3949 77.7386 27.4874C77.5229 27.5798 77.3553 27.705 77.2359 27.8629C77.1165 28.017 77.0568 28.2095 77.0568 28.4406C77.0568 28.7757 77.1782 29.0319 77.4208 29.209C77.6673 29.3823 77.9793 29.469 78.3567 29.469ZM87.0199 19.168V31H84.5587V19.168H87.0199ZM93.7115 22.126V23.9748H88.3674V22.126H93.7115ZM89.5807 19.9999H92.0418V28.2731C92.0418 28.5003 92.0765 28.6775 92.1458 28.8046C92.2151 28.9279 92.3114 29.0145 92.4347 29.0646C92.5618 29.1147 92.7081 29.1397 92.8737 29.1397C92.9893 29.1397 93.1048 29.1301 93.2204 29.1108C93.3359 29.0877 93.4245 29.0704 93.4861 29.0588L93.8732 30.8902C93.75 30.9287 93.5766 30.973 93.3533 31.0231C93.1299 31.077 92.8583 31.1098 92.5387 31.1213C91.9455 31.1444 91.4256 31.0655 90.9788 30.8845C90.5358 30.7034 90.1911 30.4223 89.9446 30.041C89.6981 29.6597 89.5768 29.1782 89.5807 28.5966V19.9999ZM97.9665 25.8697V31H95.5053V19.168H97.8971V23.6917H98.0011C98.2014 23.1679 98.5249 22.7577 98.9717 22.4611C99.4185 22.1607 99.9789 22.0105 100.653 22.0105C101.269 22.0105 101.806 22.1453 102.265 22.4149C102.727 22.6806 103.085 23.0639 103.339 23.5646C103.597 24.0614 103.725 24.6565 103.721 25.3498V31H101.26V25.7888C101.263 25.2419 101.125 24.8163 100.844 24.512C100.566 24.2078 100.177 24.0556 99.6766 24.0556C99.3415 24.0556 99.0449 24.1269 98.7868 24.2694C98.5326 24.4119 98.3324 24.6199 98.186 24.8934C98.0435 25.163 97.9703 25.4884 97.9665 25.8697Z" fill="#00549D"/>
<path d="M119.909 23.3104H117.378C117.332 22.983 117.238 22.6922 117.095 22.438C116.953 22.1799 116.77 21.9604 116.546 21.7794C116.323 21.5983 116.065 21.4597 115.772 21.3634C115.483 21.2671 115.169 21.219 114.831 21.219C114.218 21.219 113.685 21.3711 113.23 21.6754C112.776 21.9758 112.423 22.4149 112.173 22.9926C111.923 23.5665 111.797 24.2636 111.797 25.084C111.797 25.9275 111.923 26.6362 112.173 27.2101C112.427 27.7839 112.781 28.2172 113.236 28.51C113.69 28.8027 114.216 28.949 114.813 28.949C115.148 28.949 115.458 28.9048 115.743 28.8162C116.032 28.7276 116.288 28.5986 116.512 28.4291C116.735 28.2558 116.92 28.0459 117.066 27.7994C117.217 27.5529 117.321 27.2717 117.378 26.9559L119.909 26.9674C119.843 27.5105 119.68 28.0343 119.418 28.5389C119.16 29.0396 118.811 29.4883 118.372 29.885C117.937 30.2778 117.417 30.5898 116.812 30.8209C116.211 31.0481 115.531 31.1618 114.773 31.1618C113.717 31.1618 112.774 30.923 111.942 30.4454C111.114 29.9678 110.459 29.2764 109.978 28.3713C109.5 27.4662 109.261 26.3704 109.261 25.084C109.261 23.7937 109.504 22.696 109.989 21.7909C110.474 20.8858 111.133 20.1964 111.965 19.7226C112.797 19.245 113.733 19.0062 114.773 19.0062C115.458 19.0062 116.094 19.1025 116.679 19.2951C117.269 19.4877 117.79 19.7689 118.245 20.1386C118.699 20.5045 119.069 20.9532 119.354 21.4847C119.643 22.0162 119.828 22.6248 119.909 23.3104ZM124.187 31.1675C123.621 31.1675 123.116 31.0693 122.673 30.8729C122.23 30.6726 121.88 30.378 121.622 29.989C121.368 29.5961 121.24 29.107 121.24 28.5215C121.24 28.0285 121.331 27.6145 121.512 27.2794C121.693 26.9443 121.94 26.6747 122.251 26.4706C122.563 26.2664 122.918 26.1124 123.315 26.0084C123.715 25.9044 124.135 25.8312 124.574 25.7888C125.09 25.7349 125.506 25.6848 125.822 25.6386C126.138 25.5886 126.367 25.5154 126.509 25.4191C126.652 25.3228 126.723 25.1803 126.723 24.9916V24.9569C126.723 24.591 126.608 24.3079 126.377 24.1076C126.149 23.9074 125.826 23.8072 125.406 23.8072C124.963 23.8072 124.611 23.9054 124.349 24.1019C124.087 24.2944 123.913 24.5371 123.829 24.8298L121.552 24.6449C121.668 24.1057 121.895 23.6397 122.234 23.2468C122.573 22.8501 123.01 22.5458 123.546 22.334C124.085 22.1183 124.709 22.0105 125.417 22.0105C125.91 22.0105 126.382 22.0682 126.833 22.1838C127.287 22.2993 127.69 22.4784 128.04 22.7211C128.395 22.9637 128.674 23.2757 128.878 23.657C129.082 24.0345 129.184 24.487 129.184 25.0147V31H126.85V29.7694H126.781C126.638 30.0467 126.448 30.2913 126.209 30.5031C125.97 30.7111 125.683 30.8748 125.348 30.9942C125.013 31.1098 124.626 31.1675 124.187 31.1675ZM124.892 29.469C125.254 29.469 125.573 29.3978 125.851 29.2552C126.128 29.1089 126.346 28.9125 126.504 28.666C126.662 28.4195 126.74 28.1402 126.74 27.8282V26.8865C126.663 26.9366 126.558 26.9828 126.423 27.0252C126.292 27.0637 126.143 27.1003 125.978 27.135C125.812 27.1658 125.647 27.1947 125.481 27.2216C125.315 27.2447 125.165 27.2659 125.03 27.2852C124.742 27.3275 124.489 27.3949 124.274 27.4874C124.058 27.5798 123.89 27.705 123.771 27.8629C123.652 28.017 123.592 28.2095 123.592 28.4406C123.592 28.7757 123.713 29.0319 123.956 29.209C124.202 29.3823 124.514 29.469 124.892 29.469ZM131.094 31V22.126H133.48V23.6743H133.572C133.734 23.1236 134.005 22.7076 134.387 22.4264C134.768 22.1414 135.207 21.9989 135.704 21.9989C135.827 21.9989 135.96 22.0066 136.103 22.022C136.245 22.0374 136.37 22.0586 136.478 22.0856V24.2694C136.363 24.2347 136.203 24.2039 135.999 24.177C135.795 24.15 135.608 24.1365 135.438 24.1365C135.076 24.1365 134.753 24.2155 134.468 24.3734C134.187 24.5275 133.963 24.7431 133.798 25.0205C133.636 25.2978 133.555 25.6174 133.555 25.9795V31H131.094ZM141.382 31.1733C140.469 31.1733 139.683 30.9884 139.025 30.6187C138.37 30.2451 137.865 29.7174 137.511 29.0357C137.157 28.3501 136.979 27.5394 136.979 26.6034C136.979 25.6906 137.157 24.8895 137.511 24.2001C137.865 23.5106 138.364 22.9734 139.007 22.5882C139.654 22.203 140.413 22.0105 141.283 22.0105C141.869 22.0105 142.414 22.1048 142.918 22.2936C143.427 22.4784 143.87 22.7577 144.247 23.1313C144.629 23.5049 144.925 23.9748 145.137 24.5409C145.349 25.1033 145.455 25.7619 145.455 26.5168V27.1927H137.962V25.6675H143.138C143.138 25.3132 143.061 24.9993 142.907 24.7258C142.753 24.4524 142.539 24.2386 142.266 24.0845C141.996 23.9266 141.682 23.8477 141.324 23.8477C140.95 23.8477 140.619 23.9343 140.33 24.1076C140.045 24.2771 139.822 24.5063 139.66 24.7951C139.498 25.0802 139.415 25.3979 139.412 25.7484V27.1985C139.412 27.6376 139.493 28.017 139.654 28.3366C139.82 28.6563 140.053 28.9028 140.353 29.0761C140.654 29.2495 141.01 29.3361 141.422 29.3361C141.696 29.3361 141.946 29.2976 142.173 29.2206C142.4 29.1435 142.595 29.028 142.757 28.8739C142.918 28.7199 143.042 28.5312 143.126 28.3078L145.403 28.458C145.287 29.0049 145.05 29.4825 144.692 29.8908C144.338 30.2952 143.879 30.611 143.317 30.8382C142.759 31.0616 142.114 31.1733 141.382 31.1733Z" fill="#E80320"/>
</svg>
